<?xml version="1.0" encoding="UTF-8" standalone="no"?>
<svg
   xmlns:dc="http://purl.org/dc/elements/1.1/"
   xmlns:cc="http://creativecommons.org/ns#"
   xmlns:rdf="http://www.w3.org/1999/02/22-rdf-syntax-ns#"
   xmlns:svg="http://www.w3.org/2000/svg"
   xmlns="http://www.w3.org/2000/svg"
   xmlns:sodipodi="http://sodipodi.sourceforge.net/DTD/sodipodi-0.dtd"
   xmlns:inkscape="http://www.inkscape.org/namespaces/inkscape"
   viewBox="0 0 16.000001 16.000001"
   id="svg2"
   version="1.1"
   inkscape:version="0.91 r13725"
   width="100%"
   height="100%"
   sodipodi:docname="close.svg">
  <metadata
     id="metadata12">
    <rdf:RDF>
      <cc:Work
         rdf:about="">
        <dc:format>image/svg+xml</dc:format>
        <dc:type
           rdf:resource="http://purl.org/dc/dcmitype/StillImage" />
      </cc:Work>
    </rdf:RDF>
  </metadata>
  <defs
     id="defs10" />
  <sodipodi:namedview
     pagecolor="#ffffff"
     bordercolor="#666666"
     borderopacity="1"
     objecttolerance="10"
     gridtolerance="10"
     guidetolerance="10"
     inkscape:pageopacity="0"
     inkscape:pageshadow="2"
     inkscape:window-width="1874"
     inkscape:window-height="1003"
     id="namedview8"
     showgrid="false"
     fit-margin-top="0"
     fit-margin-left="0"
     fit-margin-right="0"
     fit-margin-bottom="0"
     inkscape:zoom="14.749999"
     inkscape:cx="-16.827863"
     inkscape:cy="12.392494"
     inkscape:window-x="0"
     inkscape:window-y="2"
     inkscape:window-maximized="1"
     inkscape:current-layer="g4" />
  <g
     transform="matrix(1.1479821,0,0,1.1479821,-47.103141,-595.83858)"
     id="g4">
    <path
       style="color:#bebebe;line-height:normal;fill:#858586;fill-opacity:0.8565401"
       d="m 48,532.96875 c -3.85327,0 -6.96875,-3.11547 -6.96875,-6.96875 0,-3.85327 3.11548,-6.96875 6.96875,-6.96875 3.85327,0 6.96875,3.11548 6.96875,6.96875 0,3.85328 -3.11548,6.96875 -6.96875,6.96875 z M 45,529 l 1,0 c 0.01037,1.2e-4 0.02079,4.6e-4 0.03125,0 0.254951,-0.0112 0.50987,-0.12858 0.6875,-0.3125 L 48,527.40625 49.3125,528.6875 C 49.578125,528.918 49.759172,528.993 50,529 l 1,0 0,-1 c 0,-0.28647 -0.03434,-0.55065 -0.25,-0.75 l -1.28125,-1.28125 1.25,-1.25 C 50.906938,524.53058 50.999992,524.2653 51,524 l 0,-1 -1,0 c -0.265301,10e-6 -0.530586,0.0931 -0.71875,0.28125 L 48,524.5625 46.71875,523.28125 C 46.530586,523.09306 46.26529,523 46,523 l -1,0 0,1 c -3e-6,0.26529 0.09306,0.53058 0.28125,0.71875 l 1.28125,1.25 -1.28125,1.28125 C 45.070508,527.44463 44.97809,527.71925 45,528 l 0,1 z"
       id="path6"
       inkscape:connector-curvature="0" />
  </g>
</svg>
